<?xml version="1.0" encoding="UTF-8" standalone="no"?>
<!DOCTYPE svg PUBLIC "-//W3C//DTD SVG 1.1//EN" "http://www.w3.org/Graphics/SVG/1.1/DTD/svg11.dtd">
<svg width="100%" height="100%" viewBox="0 0 700 1080" version="1.1" xmlns="http://www.w3.org/2000/svg" xmlnsXlink="http://www.w3.org/1999/xlink" xmlSpace="preserve" xmlnsSerif="http://www.serif.com/" style="fill-rule:evenodd;clip-rule:evenodd;stroke-linecap:round;stroke-linejoin:round;stroke-miterlimit:1.5;">
    <g id="Duck-Body" serifId="Duck Body">
        <path d="M343.989,793.926C343.942,793.965 341.779,793.751 338.403,793.483C320.098,792.029 258.285,785.407 211.799,766.382C152.827,742.246 132.143,701.656 132.143,701.023L132.44,701.713C131.317,699.12 120.292,680.057 116.019,663.794C110.602,643.173 111.133,625.079 111.133,621.334L111.414,622.293C110.202,612.385 121.687,546.395 166.356,496.496C174.14,487.8 237.51,403.873 231.989,393.509L244.036,398.486C242.424,398.512 231.4,392.85 223.289,388.368C217.462,385.147 213.848,382.683 213.004,382.683L213.196,382.755C212.204,382.301 186.174,366.627 166.142,351.923C141.312,333.696 139.892,306.806 140.573,302.771L140.546,302.794C140.484,302.743 145.436,241.522 152.956,209.858C155.318,199.914 165.207,178.501 175.17,160.592C184.921,143.063 194.764,128.941 195.792,127.61L195.084,128.916C193.339,128.895 214.781,108.076 236.219,98.457C255.971,89.595 280.633,90.634 281.406,90.634C281.406,90.634 289.22,98.524 281.51,90.726C276.714,85.877 268.934,81.531 261.222,80.474C251.067,79.081 241.039,81.6 239.677,82.485C238.197,83.447 238.197,83.447 240.01,82.081C238.888,83.398 244.319,75.139 254.032,71.384C257.218,70.153 268.472,68.534 279.434,71.894C291.665,75.643 303.58,84.552 304.481,85.807L304.52,85.806C303.287,81.125 300.499,66.676 304.512,54.844C309.555,39.974 321.901,27.784 322.709,27.896C322.954,27.931 319.501,37.104 318.658,48.475C318.39,52.086 315.787,68.336 328.871,80.542C340.877,91.743 365.7,98.712 367.873,98.994C367.873,98.994 367.172,98.747 367.931,99.051C368.497,99.277 383.637,100.309 404.13,110.758C411.256,114.391 435.318,130.453 456.712,157.278C475.527,180.869 482.693,220.346 482.196,223.493L482.251,223.052C481.972,223.084 485.176,239.971 479.837,261.215C478.703,265.728 472.165,285.994 479.18,311.552C484.997,332.741 475.224,369.236 475.22,369.236L475.297,369.2C475.113,370.217 470.943,358.727 469.586,356.425C467.61,353.072 461.612,343.072 460.781,343.072L460.835,343.151C465.339,347.112 457.424,391.428 447.321,391.511L447.485,391.378C451.735,389.494 446.023,372.847 441.1,370.776L441.214,370.773C441.116,370.509 441.369,380.819 437.743,389.275C434.31,397.281 427.033,403.451 425.429,403.451L424.586,403.808C424.322,399.465 425.079,394.384 425.079,390.15L425.258,390.015C424.668,389.96 419.632,396.998 412.889,402.52C406.052,408.118 397.49,412.202 394.452,412.202L394.676,412.222C394.022,411.839 397.722,399.704 395.919,397.042C395.727,396.758 395.727,396.758 395.573,397.21C394.582,397.499 379.126,409.571 360.329,413.342C335.467,418.33 305.781,414.688 305.781,414.26L305.707,414.517C305.707,414.517 305.634,437.046 309.808,458.56C313.854,479.412 322.909,499.407 323.772,500.27L323.776,500.249C326.852,500.22 369.387,502.893 395.065,517.361C420.981,531.963 447.698,564.936 447.502,566.756L447.713,566.664C447.532,566.69 466.19,561.7 482.85,562.724C495.597,563.507 507.952,571.417 507.952,571.467L507.849,571.48C507.605,571.39 535.964,572.935 556.5,559.201C569.945,550.21 580.948,522.435 581.212,522.171C581.494,521.889 588.163,529.585 590.869,538.178C593.431,546.314 593.267,554.216 593.505,554.216L593.502,554.307C596.592,551.68 597.899,544.209 599.469,534.571C601.151,524.25 598.813,512.06 599.163,512.409C599.435,512.679 620.94,523.959 631.278,544.663C638.428,558.982 636.93,584.942 636.534,585.339L636.454,585.343C641.749,581.179 648.377,565.41 648.805,565.624C649.461,565.952 662.362,589.458 657.927,613.537C654.037,634.658 631.668,656.059 630.504,658.679C630.504,658.679 630.822,658.369 630.471,658.748C627.889,661.531 624.024,685.753 613.393,709.27C603.338,731.517 582.495,748.828 573.366,753.014L573.471,753.002C573.761,752.55 551.846,766.171 528.436,775.069C504.158,784.297 478.345,788.823 478.212,788.823L489.087,767.887C489.087,768.057 477.434,793.562 459.591,810.991C444.803,825.436 439.326,830.163 418.52,831.919C373.434,835.725 344.572,794.288 343.989,793.926Z" style="fill:rgb(255,214,0);"/>
        <path d="M446.376,390.346C446.376,390.346 446.392,390.333 446.539,390.213C446.642,390.13 446.756,390.06 446.877,390.007C447.135,389.892 447.22,389.59 447.311,389.247C447.499,388.541 447.512,387.64 447.417,386.629C447.115,383.408 445.679,379.196 443.882,376.043C443.448,375.282 443.003,374.579 442.551,373.98C442.298,377.734 441.55,384.203 439.122,389.866C436.608,395.728 432.123,400.649 429.083,403.075C428.072,403.881 427.197,404.424 426.576,404.686C426.296,404.805 426.041,404.877 425.82,404.915L425.172,405.189C424.723,405.379 424.211,405.34 423.796,405.083C423.382,404.827 423.119,404.385 423.089,403.899C422.905,400.866 423.212,397.475 423.417,394.26C421.1,396.86 417.483,400.697 413.839,403.68C408.919,407.709 403.128,410.969 399.026,412.566C397.456,413.177 396.105,413.544 395.099,413.66C394.923,413.713 394.734,413.733 394.542,413.716C394.341,413.698 394.319,413.696 394.319,413.696C394.319,413.696 394.452,413.702 394.452,413.702L394.423,413.665C394.362,413.587 394.21,413.388 394.042,413.128L393.917,413.516C393.63,413.348 393.303,413.049 393.162,412.483C393.088,412.186 393.087,411.484 393.247,410.509C393.577,408.495 394.454,404.767 394.791,401.651C394.88,400.835 394.931,400.064 394.917,399.389C394.681,399.543 394.424,399.712 394.161,399.887C389.014,403.299 375.902,411.748 360.624,414.813C339.058,419.14 313.899,417.035 307.218,416.08C307.288,421.511 307.784,440.251 311.281,458.274C314.489,474.808 320.874,490.799 323.737,496.971C324.068,497.683 324.403,498.337 324.632,498.771C331.564,499.055 371.284,502.241 395.801,516.054C416.719,527.84 438.164,551.479 445.801,561.408C446.956,562.91 447.805,564.122 448.315,564.957C452.39,563.946 468.416,560.334 482.942,561.227C494.738,561.951 506.213,568.597 508.389,569.96L508.427,569.984L508.617,569.985C513.135,570.045 537.516,570.092 555.666,557.954C566.207,550.905 575.148,532.028 578.463,524.646C579.241,522.911 579.721,521.783 579.848,521.535C579.976,521.286 580.102,521.159 580.151,521.11C580.364,520.897 581.35,520.237 582.451,521.178C583.82,522.347 589.755,529.647 592.299,537.727C593.63,541.954 594.298,546.561 594.627,549.755C594.776,549.369 594.919,548.962 595.06,548.534C596.235,544.947 597.061,540.022 597.989,534.33C599.48,525.181 597.742,514.542 597.635,512.756C597.564,511.581 598.339,511.128 598.484,511.056C598.834,510.884 599.214,510.841 599.628,510.979C599.752,511.02 599.892,511.083 600.036,511.188L600.607,511.524C604.454,513.777 623.138,525.004 632.62,543.993C638.115,554.996 638.633,572.731 638.376,581C639.279,579.758 640.179,578.329 641.048,576.858C643.897,572.029 646.345,566.712 647.205,565.251C647.71,564.393 648.341,564.18 648.516,564.147C648.877,564.08 649.195,564.142 649.476,564.282C649.593,564.341 649.863,564.498 650.146,564.881C650.422,565.253 651.013,566.239 651.772,567.747C655.341,574.849 663.024,594.144 659.402,613.808C657.024,626.721 647.908,639.759 640.707,648.682C637.403,652.776 634.519,655.993 632.925,657.915C632.563,658.352 632.272,658.698 632.084,658.956C632.008,659.184 631.857,659.46 631.57,659.768C631.341,660.015 631.137,660.509 630.874,661.183C630.352,662.52 629.772,664.451 629.096,666.85C626.391,676.455 622.238,693.344 614.76,709.888C604.667,732.219 583.862,749.634 574.378,754.196C574.24,754.301 574.083,754.382 573.916,754.434C573.842,754.473 573.735,754.529 573.637,754.583C570.073,756.549 550.128,768.429 528.969,776.471C507.015,784.816 483.808,789.319 479.081,790.172C478.579,790.663 478.212,790.323 478.212,790.323L478.193,790.29C473.448,797.49 467.495,805.367 460.639,812.064C445.526,826.826 439.91,831.619 418.646,833.414C377.37,836.898 349.427,803.175 343.825,796.113L343.25,795.389C342.337,795.318 340.589,795.161 338.284,794.978C319.914,793.519 257.882,786.863 211.231,767.77C163.61,748.28 140.744,718.136 133.494,706.541C132.359,704.726 131.599,703.35 131.176,702.521C131.134,702.454 131.096,702.384 131.064,702.309L131.004,702.176L130.935,702.031L130.912,701.982C129.179,698.382 118.717,679.963 114.569,664.175C109.102,643.369 109.633,625.113 109.633,621.334C109.633,621.481 109.654,621.623 109.694,621.757L109.872,621.89C109.648,618.466 110.457,610.564 112.84,599.856C118.653,573.744 133.766,530.653 165.238,495.495C171.443,488.564 213.095,433.661 226.691,406.689C228.667,402.768 230.045,399.462 230.591,397.007C230.866,395.769 230.988,394.82 230.665,394.214C230.834,394.532 231.109,394.772 231.432,394.901L231.989,395.009L231.902,394.839C231.872,394.778 231.836,394.702 231.795,394.615C228.717,393.026 225.456,391.279 222.564,389.68C217.9,387.103 213.684,384.657 212.963,384.237C212.863,384.222 212.762,384.195 212.663,384.158C212.491,384.093 212.473,384.085 212.473,384.085L212.521,384.094C210.925,383.271 185.145,367.732 165.255,353.132C141.047,335.362 138.597,309.524 139.005,303.354C138.783,303.042 138.733,302.646 139.083,302.163C139.105,301.859 139.138,301.44 139.18,300.914C140.007,290.648 144.712,238.079 151.496,209.511C153.876,199.492 163.821,177.907 173.859,159.862C182.39,144.528 190.993,131.788 193.77,127.85C193.832,127.726 193.907,127.598 193.998,127.466C194.139,127.261 194.339,127.007 194.593,126.709L194.604,126.694L194.597,126.704C198.717,121.86 217.149,105.37 235.605,97.088C251.042,90.162 269.435,89.187 277.409,89.105C272.91,85.614 266.944,82.772 261.018,81.96C254.123,81.014 247.289,81.929 243.356,82.857C241.872,83.207 240.843,83.516 240.494,83.743C239.836,84.17 239.208,84.565 238.613,84.925C236.484,86.359 234.977,87.092 234.067,87.299C231.501,88.305 231.365,87.331 235.066,84.116C235.562,83.658 236.147,83.167 236.82,82.657C237.412,82.182 238.065,81.673 238.784,81.128C238.932,80.904 239.132,80.624 239.391,80.303C241.177,78.086 246.173,72.814 253.492,69.985C256.8,68.706 268.489,66.97 279.874,70.46C288.607,73.137 297.185,78.386 301.859,81.738L302.142,81.942C300.917,75.252 299.833,63.968 303.091,54.362C307.221,42.185 316.134,31.762 319.959,28.139C320.866,27.279 321.553,26.768 321.883,26.602C322.336,26.373 322.701,26.381 322.916,26.411C323.293,26.463 323.626,26.635 323.89,26.968C323.978,27.079 324.358,27.604 324.136,28.525C323.752,30.119 320.904,38.472 320.154,48.586C319.896,52.058 317.313,67.709 329.894,79.445C336.681,85.776 347.651,90.726 356.116,93.831C355.027,92.791 357.362,93.22 368.082,97.496L368.371,97.579C368.413,97.594 368.453,97.61 368.492,97.628C368.787,97.669 369.426,97.759 370.166,97.868C375.052,98.592 388.197,100.95 404.811,109.421C412.002,113.087 436.297,129.275 457.885,156.343C471.204,173.043 478.775,197.606 481.931,211.939C483.029,216.923 483.574,220.719 483.684,222.609C483.746,222.81 483.766,223.024 483.74,223.238C483.743,223.291 483.748,223.359 483.754,223.419C484.025,226.408 486.161,242.206 481.292,261.581C480.175,266.025 473.718,285.984 480.627,311.155C485.932,330.48 478.498,362.374 476.943,368.559L476.795,369.139C476.8,369.247 476.793,369.357 476.773,369.467C476.59,370.479 475.9,370.705 475.411,370.755L475.383,370.758C475.337,370.765 475.304,370.766 475.28,370.763C474.949,370.771 474.381,370.679 473.912,370.028C473.082,368.876 469.527,359.279 468.294,357.187C467.336,355.561 465.419,352.334 463.629,349.494C463.638,356.291 461.932,367.024 459.174,376.032C457.502,381.492 455.432,386.321 453.156,389.326C451.475,391.545 449.614,392.808 447.755,392.988C447.403,393.147 447.321,393.011 447.321,393.011L446.376,390.346ZM304.391,87.304C303.942,87.277 303.527,87.05 303.263,86.682C303.021,86.346 301.864,85.433 300.111,84.176C295.62,80.956 287.385,75.9 278.995,73.328C268.455,70.097 257.636,71.6 254.573,72.784C249.983,74.558 246.396,77.386 244.08,79.63C248.368,78.77 254.871,78.089 261.426,78.988C269.465,80.09 277.578,84.616 282.576,89.672C285.055,92.179 285.937,93.072 285.99,93.127C286.001,93.139 286.01,93.155 286.017,93.177C286.358,93.631 286.187,94.009 285.821,94.308C285.486,95.19 284.777,96.089 283.807,95.184L283.824,95.203L283.775,95.153L283.741,95.12C283.297,94.674 281.576,92.936 280.765,92.119C276.708,92.028 254.726,91.797 236.834,99.825C219.892,107.427 202.947,122.109 197.73,127.688C197.475,127.96 197.225,128.251 197.011,128.509L196.403,129.63C196.251,129.912 196.016,130.131 195.738,130.265C192.626,134.735 184.524,146.863 176.481,161.321C166.593,179.094 156.759,200.336 154.415,210.205C147.664,238.631 142.993,290.94 142.17,301.155C142.091,302.135 142.045,302.82 142.045,302.82C142.045,302.82 141.544,301.673 141.503,301.64L139.581,301.646C139.364,301.828 139.2,302.001 139.083,302.163C139.06,302.477 139.048,302.669 139.046,302.729C139.045,302.778 139.045,302.826 139.047,302.871C139.031,303.016 139.017,303.176 139.005,303.354C139.085,303.467 139.188,303.569 139.302,303.66C139.18,303.488 139.063,303.232 139.047,302.871C139.061,302.741 139.077,302.624 139.094,302.522L140.573,304.271L142.052,303.021C141.39,306.942 142.902,333.002 167.03,350.714C186.336,364.885 211.236,379.973 213.658,381.307C214.058,381.427 214.582,381.644 215.209,381.982C216.93,382.911 219.93,384.797 224.015,387.055C228.429,389.495 233.711,392.286 237.851,394.308L244.609,397.099C245.266,397.371 245.642,398.067 245.509,398.766C245.377,399.464 244.771,399.974 244.06,399.986C243.646,399.992 242.73,399.772 241.476,399.265C240.238,398.764 238.558,397.99 236.632,397.05L233.79,395.876C233.75,396.424 233.661,397.019 233.519,397.658C232.935,400.287 231.487,403.84 229.37,408.04C215.675,435.208 173.724,490.514 167.473,497.496C136.41,532.198 121.506,574.735 115.769,600.508C113.35,611.374 112.548,619.206 112.903,622.111C112.952,622.505 112.842,622.884 112.622,623.182C112.589,629.24 112.724,645.348 117.47,663.413C121.302,677.998 130.608,694.843 133.218,699.902C133.312,700.008 133.413,700.179 133.521,700.431L133.668,700.772C133.944,701.32 134.798,702.967 136.038,704.951C143.153,716.331 165.632,745.866 212.367,764.993C258.687,783.95 320.282,790.539 338.521,791.988C341.338,792.211 343.658,792.407 343.92,792.429C344.216,792.414 344.516,792.488 344.779,792.652C344.846,792.693 344.957,792.767 345.088,792.901C345.201,793.017 345.571,793.486 346.175,794.249C351.587,801.072 378.515,833.791 418.394,830.425C438.743,828.707 444.08,824.045 458.543,809.918C468.554,800.139 476.593,787.789 481.679,778.895L487.756,767.196C488.075,766.582 488.771,766.266 489.443,766.43C490.115,766.594 490.587,767.196 490.587,767.887C490.587,767.953 490.592,768.128 490.502,768.389C490.477,768.461 490.346,768.775 490.104,769.297C489.345,770.93 487.366,774.978 484.366,780.231L480.946,786.814C488.168,785.4 508.526,781.032 527.903,773.667C548.883,765.693 568.654,753.905 572.189,751.956C572.404,751.837 572.591,751.747 572.747,751.68L572.741,751.651C581.708,747.538 602.149,730.505 612.027,708.652C619.431,692.272 623.53,675.546 626.209,666.037C627.041,663.079 627.748,660.797 628.366,659.398C628.655,658.744 628.947,658.249 629.217,657.908C629.773,656.936 632.01,654.396 635.061,650.795C642.155,642.423 653.777,627.791 656.452,613.265C659.926,594.404 652.515,575.906 649.091,569.095C649.006,568.924 648.919,568.756 648.832,568.592C647.644,570.939 645.748,574.796 643.631,578.383C641.746,581.578 639.667,584.551 637.753,586.214C637.694,586.296 637.637,586.356 637.594,586.399C637.331,586.663 636.979,586.818 636.608,586.837L636.608,586.837L636.529,586.841C635.877,586.873 635.278,586.48 635.049,585.868C634.892,585.447 634.934,584.99 635.143,584.613C635.189,584.17 635.28,583.233 635.328,582.257C635.678,575.096 635.542,556.56 629.936,545.333C621.863,529.165 606.833,518.868 600.909,515.207C601.374,519.433 602.129,527.576 600.95,534.812C599.992,540.686 599.124,545.766 597.91,549.468C597.008,552.221 595.875,554.259 594.474,555.45C594.021,555.835 593.383,555.916 592.848,555.657C592.378,555.429 592.065,554.976 592.011,554.467C591.986,554.376 591.968,554.278 591.955,554.174C591.787,552.843 591.705,545.828 589.438,538.629C587.714,533.154 583.638,527.463 581.643,524.882L581.199,525.875C577.75,533.559 568.305,553.111 557.334,560.448C538.519,573.031 513.261,573.047 508.577,572.985L507.952,572.976C507.741,572.991 507.529,572.961 507.33,572.887C507.002,572.766 506.79,572.592 506.651,572.412C504.272,570.945 493.665,564.891 482.758,564.221C467.965,563.312 451.576,567.215 448.576,567.985C448.43,568.022 448.292,568.059 448.216,568.08C447.54,568.365 447.502,568.256 447.502,568.256C447.076,568.256 446.67,568.075 446.386,567.758C446.191,567.541 446.065,567.274 446.02,566.991C445.87,566.746 444.826,565.061 443.423,563.237C435.922,553.484 414.876,530.244 394.328,518.668C370.271,505.113 331.256,502.033 324.596,501.768C324.188,502.02 323.772,501.77 323.772,501.77C323.374,501.77 322.992,501.612 322.711,501.33C322.509,501.128 321.863,500.06 321.016,498.234C318.101,491.951 311.601,475.675 308.336,458.845C304.134,437.189 304.207,414.512 304.207,414.512C304.206,414.911 304.363,415.293 304.645,415.576C304.926,415.858 305.308,416.017 305.707,416.017L305.495,415.734C305.111,415.606 304.893,415.478 304.83,415.426C304.367,415.04 304.281,414.596 304.281,414.26L304.719,414.697L304.268,414.095C304.268,414.095 304.338,413.851 304.338,413.851C304.338,413.851 305.781,415.76 305.781,415.76L307.195,414.702C307.203,414.643 307.207,414.583 307.207,414.522L307.207,414.693L307.22,414.683C307.26,414.549 307.281,414.407 307.281,414.26C307.281,413.945 307.202,413.569 306.855,413.217C306.791,413.152 306.336,412.884 306.336,412.884C306.336,412.884 306.63,412.95 306.889,412.994C311.871,413.843 337.886,416.315 360.034,411.872C374.831,408.903 387.518,400.692 392.503,397.386C393.303,396.856 393.945,396.446 394.401,396.172C394.663,395.724 394.95,395.562 395.076,395.5C395.43,395.328 396.373,395.037 397.161,396.201C397.772,397.102 398.019,398.851 397.866,400.96C397.645,404.028 396.729,408.006 396.309,410.344C396.804,410.193 397.349,410 397.938,409.771C401.816,408.261 407.287,405.168 411.938,401.359C417.266,396.997 421.508,391.67 423.292,389.744C423.824,389.17 424.241,388.834 424.463,388.716C424.838,388.517 425.162,388.499 425.397,388.521C426.013,388.579 426.53,389.008 426.7,389.603C426.81,389.989 426.759,390.394 426.574,390.732C426.523,394.115 426.048,397.979 426.029,401.545C426.385,401.329 426.819,401.043 427.212,400.73C429.984,398.518 434.072,394.03 436.364,388.684C439.532,381.295 439.631,372.446 439.692,370.938C439.705,370.617 439.766,370.377 439.825,370.214C439.776,369.738 440.047,369.348 440.999,369.282C441.32,369.233 441.648,369.284 441.975,369.477C442.048,369.521 442.148,369.583 442.252,369.681C443.317,370.303 444.423,371.416 445.439,372.883C447.912,376.453 450.011,382.157 450.404,386.349C450.454,386.888 450.476,387.405 450.468,387.894C450.568,387.771 450.666,387.645 450.764,387.515C452.877,384.725 454.753,380.223 456.305,375.154C459.076,366.103 460.771,355.252 460.62,348.754C460.59,347.452 460.487,346.337 460.293,345.466C460.17,344.916 460.08,344.484 459.845,344.277C459.752,344.196 459.669,344.103 459.599,344C459.55,343.929 459.545,343.922 459.545,343.922C459.545,343.922 460.781,344.572 460.781,344.572L460.776,344.394C460.773,344.226 460.771,343.955 460.781,343.649L460.781,341.572C460.968,341.572 461.204,341.603 461.466,341.722C461.517,341.736 461.571,341.763 461.628,341.804C461.653,341.818 461.679,341.834 461.704,341.849C461.977,342.021 462.459,342.491 463.021,343.232C465.069,345.931 469.279,352.948 470.879,355.664C471.613,356.91 473.474,361.298 474.821,364.55C477.163,354.373 482.265,328.455 477.734,311.949C470.612,286.004 477.231,265.431 478.382,260.85C483.124,241.984 481.03,226.601 480.766,223.69C480.755,223.57 480.75,223.458 480.75,223.353L480.707,223.305L480.725,223.163C480.818,222.103 480.234,218.178 479.002,212.584C475.915,198.573 468.561,174.54 455.54,158.214C434.338,131.63 410.51,115.694 403.448,112.094C385.25,102.815 371.33,101.058 368.321,100.637C367.781,100.562 367.464,100.48 367.374,100.444L367.295,100.412C363.413,99.605 339.609,92.611 327.848,81.639C314.26,68.963 316.884,52.114 317.162,48.364C317.636,41.972 318.922,36.265 319.929,32.45C315.788,36.962 309.246,45.554 305.932,55.326C302.031,66.828 304.772,80.873 305.97,85.424C306.088,85.873 305.992,86.351 305.71,86.72C305.427,87.088 304.99,87.304 304.526,87.306L304.481,87.307L304.391,87.304ZM572.78,751.833L572.209,752.191C571.663,753.042 572.064,753.663 572.351,753.987C572.527,754.186 572.772,754.368 573.131,754.452C573.156,754.458 573.242,754.454 573.351,754.446L572.78,751.833ZM132.23,701.802L131.516,702.11L132.143,702.523L132.162,702.339C132.176,702.209 132.198,702.02 132.23,701.802ZM130.748,701.574C130.652,701.278 130.643,701.084 130.643,701.023C130.643,701.218 130.681,701.404 130.748,701.574ZM630.8,660.051L631.607,659.701C631.607,659.701 630.939,660.03 630.885,660.039L630.8,660.051ZM111.266,622.199L110.497,622.357L111.133,622.834L111.167,622.657C111.19,622.544 111.223,622.383 111.266,622.199ZM109.701,621.78L109.702,621.784L109.695,621.758L109.701,621.78ZM598.529,513.768C598.391,513.706 598.246,513.613 598.104,513.471C598.129,513.496 598.271,513.602 598.529,513.768ZM322.653,499.255C322.524,499.273 322.404,499.473 322.307,499.946C322.361,499.682 322.483,499.446 322.653,499.255ZM306.227,415.923C306.028,415.993 305.853,416.011 305.766,416.015C305.928,416.009 306.084,415.977 306.23,415.923L306.227,415.923ZM307.219,414.689L307.213,414.707L307.219,414.689ZM425.429,404.951L425.429,403.312L425.047,403.075L425.429,404.951ZM212.762,383.66L212.576,384.104L213.004,384.183L212.924,384.019C212.88,383.929 212.823,383.805 212.762,383.66ZM213.099,381.186L213.14,381.192C213.223,381.201 213.319,381.218 213.427,381.244C213.322,381.213 213.212,381.193 213.099,381.186ZM440.065,370.912L439.807,371.294C439.983,371.769 440.283,371.962 440.447,372.059C440.662,372.186 440.877,372.251 441.091,372.267C441.01,372.185 440.411,371.567 440.065,370.912ZM474.495,368.284L474.647,368.169L475.023,369.857L473.821,368.933C473.832,368.874 473.845,368.819 473.861,368.767L474.495,368.284ZM141.457,303.986C141.202,304.181 140.898,304.284 140.592,304.293C140.652,304.35 140.871,304.462 141.457,303.986ZM194.865,127.555L195.102,127.416C195.696,127.423 196.039,127.725 196.259,128.065C196.37,128.237 196.454,128.443 196.478,128.691L196.478,128.702L195.792,129.11L194.865,127.555Z"/>
    </g>
    <g id="Layer1">
        <path d="M170.359,491.664C169.447,493.062 160.789,501.272 150.873,516.477C149.255,518.957 136.505,539.526 132.398,548.18C126.391,560.837 121.189,573.733 117.939,585.837C112.5,606.095 111.222,623.191 111.222,626.34L111.135,626.325C111.111,626.434 98.745,611.94 90.973,594.971C87.423,587.219 85.597,577.945 85.411,571.02C85.185,562.607 87.603,537.904 99.416,522.529C105.211,514.988 115.277,503.69 126.405,499.202C146.536,491.083 169.147,493.011 169.178,493.011" style="fill:rgb(255,214,0);"/>
        <path d="M168.6,491.471C164.921,491.241 144.35,490.347 125.844,497.811C114.47,502.398 104.149,513.908 98.227,521.615C86.179,537.296 83.681,562.48 83.912,571.06C84.102,578.154 85.973,587.654 89.609,595.595C96.684,611.043 107.525,624.463 109.639,626.912C110.003,627.334 110.248,627.538 110.29,627.566C110.592,627.771 110.865,627.829 111.079,627.833C111.221,627.851 111.222,627.84 111.222,627.84C112.051,627.84 112.722,627.168 112.722,626.34C112.722,623.221 114.001,606.29 119.388,586.226C122.616,574.203 127.787,561.395 133.753,548.823C137.838,540.217 150.521,519.762 152.129,517.296C162.046,502.091 170.703,493.881 171.615,492.483C172.067,491.79 171.872,490.86 171.178,490.407C170.485,489.955 169.555,490.151 169.102,490.844C169.011,490.985 168.841,491.193 168.6,491.471ZM109.732,625.789C109.716,625.834 109.701,625.881 109.688,625.93C109.701,625.883 109.716,625.838 109.732,625.794L109.732,625.789ZM166,494.352C159.142,494.147 142.321,494.4 126.966,500.593C116.083,504.982 106.272,516.068 100.606,523.443C89.027,538.513 86.689,562.734 86.911,570.979C87.092,577.736 88.873,586.783 92.337,594.346C97.952,606.606 105.993,617.559 109.923,622.525C110.453,615.702 112.163,601.566 116.49,585.448C119.762,573.263 124.996,560.279 131.043,547.537C135.173,538.835 147.99,518.151 149.616,515.657C156.322,505.376 162.452,498.292 166,494.352Z"/>
    </g>
    <g id="Detail-Body" serifId="Detail Body">
        <path d="M368.958,818.012C368.958,817.847 361.595,813.085 355.399,807.086C348.873,800.769 343.512,793.221 344.177,793.996L344.362,794.048C343.242,793.899 326.611,792.649 312.199,790.733C292.878,788.164 276.401,784.977 277.137,785.155C277.137,785.155 276.946,785.651 276.946,785.192C276.946,784.958 279.67,795.823 286.966,804.606C294.582,813.774 306.665,821.904 310.384,823.763C311.321,824.232 324.521,828.976 336.796,828.153C351.166,827.19 366.373,819.299 368.594,818.189" style="fill:rgb(255,214,0);"/>
        <path d="M276.427,783.778C276.066,783.897 275.446,784.227 275.446,785.192C275.446,785.659 275.562,785.952 275.672,786.134C276.368,788.411 279.347,797.781 285.812,805.564C293.583,814.92 305.918,823.207 309.713,825.105C310.677,825.587 324.26,830.497 336.896,829.65C351.521,828.669 367.005,820.66 369.264,819.53C369.32,819.502 369.373,819.471 369.424,819.437C370.024,819.242 370.458,818.677 370.458,818.012C370.458,817.918 370.441,817.229 369.651,816.632C368.416,815.697 361.96,811.35 356.442,806.009C351.64,801.36 347.174,795.548 345.835,793.761L345.826,793.717L345.811,793.657C345.824,793.311 345.632,792.98 345.071,792.726C345.006,792.691 344.938,792.661 344.866,792.635C344.439,792.378 344.022,792.416 343.762,792.483C340.096,792.152 325.35,790.968 312.396,789.246C295.04,786.938 279.983,784.13 277.68,783.721C277.368,783.666 277.192,783.649 277.166,783.648C276.866,783.638 276.623,783.689 276.427,783.778ZM279.112,787.028C280.318,790.565 283.107,797.613 288.12,803.647C295.581,812.629 307.411,820.6 311.055,822.422C311.964,822.876 324.781,827.455 336.695,826.657C348.664,825.854 361.219,820.144 366.09,817.761C363.462,815.868 358.634,812.306 354.355,808.164C349.209,803.182 344.779,797.445 343.339,795.454C339.626,795.12 324.921,793.938 312.001,792.22C297.279,790.262 284.204,787.946 279.112,787.028ZM277.94,783.887C277.846,783.824 277.701,783.748 277.489,783.697C277.653,783.736 277.804,783.801 277.94,783.887Z"/>
    </g>
    <g id="Left-foot" serifId="Left foot">
        <path d="M197.132,886.607C191.864,887.383 201.722,869.842 209.81,867.536C220.23,864.564 280.807,867.536 301.919,867.536C314.187,867.536 313.251,834.392 313.251,831.652C313.251,830.112 312.648,826.342 313.613,827.308L313.614,826.733C311.636,826.351 327.25,828.09 331.708,828.952L331.806,828.928C330.162,825.241 330.548,864.072 333.884,870.745C340.962,884.901 365.375,885.8 365.375,904.77L365.316,904.889C355.973,897.775 340.383,899.581 324.35,900.55C308.245,901.523 279.505,919.605 266.848,922.985C245.687,928.637 223.858,934.898 225.654,921.059C226.891,911.529 239.827,905.19 245.181,899.837L245.225,899.824C237.522,900.328 184.474,914.565 180.068,902.598C172.775,882.791 226.149,885.029 235.866,884.799" style="fill:rgb(247,160,27);"/>
        <path d="M311.973,826.386L311.95,826.42C311.757,826.714 311.568,827.348 311.565,828.186C311.562,829.225 311.751,830.788 311.751,831.652C311.751,833.532 312.239,850.026 308.382,859.75C306.96,863.337 305.026,866.036 301.919,866.036C280.713,866.036 219.865,863.108 209.398,866.093C206.919,866.8 204.258,868.773 201.88,871.29C198.455,874.914 195.599,879.634 194.589,882.812C194.222,883.966 194.093,884.958 194.176,885.693C194.196,885.87 194.227,886.036 194.269,886.193C191.384,886.859 188.728,887.68 186.457,888.692C182.485,890.462 179.646,892.84 178.485,895.835C177.675,897.924 177.636,900.335 178.66,903.116C179.32,904.909 180.801,906.287 183.007,907.224C185.802,908.411 189.869,908.902 194.639,908.872C208.945,908.78 229.866,904.094 240.125,902.144C237.088,904.469 233.464,907.021 230.472,909.94C227.214,913.12 224.703,916.732 224.167,920.866C223.823,923.515 224.264,925.539 225.248,927.058C226.7,929.3 229.429,930.535 233.163,930.838C241.211,931.491 254.35,927.876 267.235,924.435C273.619,922.729 284.068,917.332 294.944,912.223C305.533,907.248 316.53,902.525 324.44,902.047C333.968,901.472 343.336,900.585 351.306,901.5C356.381,902.082 360.872,903.391 364.408,906.082C364.763,906.353 365.221,906.451 365.656,906.35C366.092,906.248 366.459,905.958 366.659,905.558C366.712,905.451 366.718,905.439 366.718,905.439L366.718,905.439C366.819,905.238 366.875,905.01 366.875,904.77C366.875,894.686 360.508,889.321 353.079,884.68C346.326,880.461 338.645,876.913 335.226,870.074C334.469,868.561 333.917,865.289 333.47,861.251C332.375,851.371 332.125,837.068 332.566,831.336C332.599,830.906 332.654,830.472 332.704,830.129C332.892,829.989 333.047,829.804 333.153,829.589C333.349,829.189 333.357,828.724 333.176,828.318C332.623,827.077 331.678,827.107 331.194,827.234C331.136,827.249 331.068,827.271 330.996,827.302C326.104,826.487 314.597,825.189 313.534,825.179C312.275,825.167 312.004,826.237 311.975,826.376L311.973,826.386ZM314.785,828.317C314.735,828.399 314.682,828.468 314.627,828.527C314.676,829.443 314.751,830.968 314.751,831.652C314.751,833.607 315.181,850.746 311.171,860.855C309.222,865.77 306.175,869.036 301.919,869.036C280.901,869.036 220.594,866.02 210.221,868.978C208.171,869.563 206.026,871.27 204.061,873.35C200.971,876.619 198.359,880.854 197.448,883.72C197.3,884.185 197.227,884.758 197.194,885.109C197.514,885.121 197.813,885.236 198.055,885.425C212.475,882.867 230.541,883.425 235.83,883.299C236.658,883.28 237.346,883.936 237.365,884.763C237.385,885.591 236.729,886.279 235.901,886.298C229.181,886.458 201.316,885.355 187.678,891.432C184.551,892.826 182.196,894.562 181.282,896.92C180.708,898.4 180.75,900.108 181.476,902.08C181.873,903.16 182.85,903.898 184.18,904.463C186.686,905.527 190.342,905.899 194.62,905.872C212.182,905.759 239.744,898.68 245.127,898.327C245.891,898.277 246.57,898.811 246.703,899.565C246.806,900.156 246.548,900.734 246.077,901.059C243.359,903.715 238.855,906.62 234.845,910.025C231.084,913.218 227.715,916.836 227.142,921.252C226.911,923.031 227.105,924.407 227.766,925.427C228.782,926.996 230.793,927.636 233.405,927.848C241.218,928.482 253.953,924.877 266.461,921.536C274.007,919.521 287.3,912.229 300.19,906.522C309.023,902.612 317.679,899.45 324.259,899.053C333.972,898.466 343.523,897.587 351.648,898.519C356.145,899.035 360.216,900.107 363.677,902.033C362.604,894.9 357.328,890.872 351.489,887.224C344.265,882.712 336.201,878.732 332.542,871.415C331.298,868.927 330.385,862.132 329.888,854.618C329.258,845.082 329.248,834.389 329.687,830.135C325.525,829.504 317.821,828.647 314.785,828.317ZM245.18,901.332L245.179,901.332L245.181,901.337L245.18,901.332Z"/>
    </g>
    <g id="Right-Foot" serifId="Right Foot">
        <path d="M438.434,829.591C438.756,829.269 449.983,862.723 483.299,879.457C518.491,897.134 562.261,919.631 562.261,921.692L561.047,920.552C566.581,924.171 565.209,936.854 552.074,934.273C544.244,932.734 502.503,909.537 502.503,910.656L502.614,910.774C502.035,909.857 554.564,961.239 539.811,965.891C525.62,970.365 475.888,918.059 470.754,915.523L471.309,916.627C471.109,916.249 470.634,915.536 470.634,915.536C470.634,915.536 485.783,962.489 472.059,966.448C450.802,972.582 432.752,889.363 432.752,888.782L432.466,888.77C434.939,889.265 419.483,885.797 415.469,884.994C407.3,883.36 382.044,876.847 383.116,871.909C384.772,864.282 419.645,865.936 419.645,865.335L419.379,865.388C421.093,865.461 417.584,838.475 412.854,832.205L412.881,832.368C414.446,832.093 431.475,830.602 437.925,827.969" style="fill:rgb(247,160,27);"/>
        <path d="M413.729,831.676C413.389,832.13 413.033,833.157 412.904,833.549L412.854,833.705C412.854,833.705 411.374,832.45 411.374,832.45C411.374,832.45 411.377,832.466 411.401,832.612C411.463,832.988 411.666,833.326 411.967,833.557C412.905,835.017 413.763,837.341 414.553,840.057C416.708,847.47 418.195,857.736 418.313,862.603C418.325,863.083 418.303,863.579 418.278,863.957C417.671,863.98 416.841,864.006 415.983,864.018C409.607,864.109 396.471,864.239 388.702,866.418C386.501,867.035 384.703,867.832 383.511,868.789C382.5,869.602 381.876,870.548 381.65,871.59C381.432,872.593 381.731,873.677 382.669,874.737C383.594,875.783 385.261,876.889 387.427,877.951C395.101,881.712 409.379,885.305 415.174,886.465C418.244,887.079 428.587,889.412 431.514,890.074C433.07,897.281 441.421,932.836 452.887,953.222C456.272,959.24 459.955,963.947 463.768,966.361C466.594,968.15 469.512,968.745 472.475,967.89C474.968,967.17 476.724,965.329 477.823,962.635C478.791,960.265 479.246,957.191 479.303,953.73C479.491,942.49 475.523,926.99 473.383,919.492C474.681,920.646 476.283,922.12 478.13,923.821C488.128,933.038 504.822,948.851 518.741,958.689C523.969,962.384 528.822,965.24 532.806,966.647C535.769,967.694 538.313,967.936 540.262,967.321C541.667,966.878 542.615,966.104 543.207,965.104C543.768,964.156 544.009,962.972 543.899,961.577C543.722,959.329 542.584,956.41 540.722,953.114C534.127,941.438 518.386,924.49 509.682,915.61C522.258,922.004 546.051,934.618 551.785,935.745C557.801,936.927 561.619,935.154 563.681,932.527C566.441,929.009 566.069,923.763 563.432,920.681C563.357,920.564 563.263,920.445 563.15,920.324C562.563,919.695 560.848,918.504 558.198,916.918C545.85,909.528 512.163,892.277 483.973,878.117C454.448,863.287 442.559,835.106 440.242,829.852C439.946,829.181 439.728,828.79 439.645,828.683C439.545,828.557 439.447,828.467 439.361,828.402C439.457,828.084 439.449,827.733 439.314,827.402C439.001,826.636 438.125,826.268 437.358,826.58C430.989,829.181 414.167,830.619 412.621,830.89L413.729,831.676ZM436.968,829.902C431.046,831.782 420.153,833.024 415.374,833.572C416.106,835.111 416.803,837.05 417.434,839.22C419.662,846.884 421.19,857.498 421.312,862.53C421.34,863.661 421.292,864.54 421.186,865.093C421.169,865.185 421.149,865.272 421.126,865.354L421.145,865.335C421.145,865.726 421.024,866.159 420.576,866.52C420.458,866.615 420.258,866.752 419.934,866.834C419.751,866.881 419.339,866.933 418.73,866.958C414.804,867.124 399.851,866.838 390.726,868.994C388.911,869.422 387.34,869.942 386.176,870.603C385.35,871.072 384.727,871.556 384.582,872.227C384.563,872.311 384.641,872.378 384.697,872.466C384.833,872.677 385.029,872.885 385.267,873.1C386.064,873.818 387.274,874.535 388.747,875.257C396.217,878.918 410.122,882.395 415.763,883.523C419.184,884.207 430.858,886.816 432.851,887.298C433.379,887.365 433.678,887.539 433.821,887.771C434.139,888.101 434.212,888.524 434.218,888.816L434.252,888.782C434.252,889.184 443.046,929.605 455.502,951.752C458.099,956.37 460.845,960.185 463.726,962.61C466.284,964.764 468.919,965.793 471.643,965.007C473.268,964.538 474.329,963.257 475.046,961.501C475.895,959.421 476.253,956.717 476.304,953.68C476.554,938.709 469.207,915.997 469.207,915.997C468.977,915.284 469.308,914.511 469.982,914.185C470.442,913.963 470.967,913.996 471.385,914.238L471.401,914.227C471.413,914.222 471.424,914.217 471.436,914.212L471.467,914.204L471.418,914.178L471.468,914.204L471.467,914.204L471.482,914.211L471.476,914.208L471.468,914.204C471.574,914.184 471.696,914.247 471.834,914.423C473.216,915.328 476.191,917.955 480.163,921.616C490.089,930.765 506.654,946.473 520.473,956.239C525.434,959.746 530.025,962.483 533.805,963.818C536.018,964.6 537.904,964.919 539.36,964.46C539.948,964.275 540.377,963.995 540.625,963.576C540.904,963.105 540.963,962.506 540.908,961.813C540.757,959.886 539.705,957.414 538.11,954.59C530.107,940.421 508.395,918.393 502.87,913.047C502.4,912.593 501.948,912.174 501.788,912.027C501.691,911.963 501.601,911.887 501.518,911.799C501.419,911.692 501.408,911.681 501.408,911.681L501.409,911.681C501.157,911.413 501.003,911.053 501.003,910.656C501.003,910.238 501.151,909.901 501.399,909.627C501.599,909.406 501.907,909.175 502.403,909.125C502.616,909.104 503.287,909.2 504.275,909.627C511.067,912.566 545.358,931.424 552.363,932.801C555.793,933.475 558.312,933.033 560.013,931.888C562.22,930.401 562.927,927.768 562.491,925.469C562.317,924.549 561.96,923.676 561.427,922.954L561.378,922.913C561.354,922.893 561.331,922.872 561.307,922.852L561.233,922.784L560.234,921.846C559.446,921.284 558.105,920.358 556.657,919.492C544.342,912.121 510.742,894.92 482.626,880.798C452.182,865.506 439.886,836.48 437.497,831.063C437.402,830.848 437.296,830.619 437.24,830.498C437.103,830.318 437.012,830.114 436.968,829.902ZM472.079,914.821L472.086,914.835L472.083,914.827L472.079,914.821ZM419.645,866.835L419.665,866.815L419.443,863.889L419.357,863.888L419.645,866.835ZM439.437,830.707C439.052,831.053 438.531,831.165 438.058,831.043C438.606,831.21 439.059,831.058 439.437,830.707Z"/>
    </g>
    <g id="left-eye" serifId="left eye">
        <path d="M190.742,251.474C189.69,251.499 182.433,247.221 181.499,246.299C157.619,222.724 177.876,156.845 210.852,163.086C234,167.467 247.083,250.16 190.742,251.474Z" style="fill:white;"/>
        <path d="M190.777,252.974C225.685,252.159 234.955,221.212 231.486,195.512C230.106,185.284 226.7,175.919 222.161,169.668C218.957,165.254 215.16,162.375 211.131,161.612C197.315,158.997 185.521,168.295 178.075,182.182C171.537,194.376 168.352,210.059 170.009,223.777C171.133,233.083 174.486,241.483 180.445,247.366C181.135,248.048 185.078,250.496 187.774,251.877C188.626,252.313 189.36,252.645 189.842,252.805C190.248,252.94 190.57,252.979 190.777,252.974ZM190.841,249.971C190.667,249.901 189.811,249.549 189.142,249.207C186.731,247.972 183.17,245.841 182.553,245.232C177.05,239.799 174.025,232.01 172.987,223.417C171.401,210.285 174.46,195.273 180.719,183.6C187.491,170.97 198.008,162.182 210.573,164.56C213.951,165.199 217.047,167.73 219.733,171.43C224.03,177.348 227.206,186.231 228.513,195.913C231.758,219.956 223.432,249.131 190.841,249.971Z"/>
    </g>
    <g id="Right-eye" serifId="Right eye">
        <path d="M314.179,275.536C286.05,234.531 323.393,194.03 336.646,193.193C385.176,190.127 375.036,287.337 329.374,285.493C328.611,285.463 318.899,282.416 314.179,275.536Z" style="fill:white;"/>
        <path d="M312.942,276.384C316.434,281.475 322.491,284.609 326.099,286.026C327.817,286.699 329.045,286.981 329.313,286.992C341.248,287.474 350.883,281.525 357.798,272.319C364.568,263.304 368.712,251.146 369.826,239.022C372.09,214.375 361.798,190.101 336.551,191.696C332.346,191.962 325.768,195.878 319.534,202.576C305.424,217.738 292.74,246.935 312.942,276.384ZM329.505,283.997C329.347,283.954 328.273,283.656 327.195,283.233C323.976,281.969 318.532,279.229 315.416,274.687L315.416,274.687C296.237,246.729 308.335,219.014 321.73,204.62C327.285,198.652 332.994,194.927 336.741,194.69C360.025,193.219 368.927,216.016 366.838,238.747C365.776,250.312 361.856,261.919 355.399,270.517C349.1,278.904 340.369,284.41 329.505,283.997Z"/>
    </g>
    <g id="left-eye-black" serifId="left eye black">
        <path d="M195.613,246.494C172.136,239.998 185.623,183.424 207.009,187.56C239.513,193.845 221.667,253.702 195.613,246.494Z"/>
        <path d="M195.213,247.939C200.881,249.508 206.197,248.182 210.785,244.964C217.372,240.343 222.443,231.724 224.727,222.446C228.589,206.758 224.464,189.408 207.294,186.087C202.547,185.169 198.13,186.885 194.342,190.374C189.03,195.266 184.957,203.736 183.021,212.724C181.084,221.717 181.291,231.203 184.36,238.084C186.519,242.926 190.069,246.516 195.213,247.939L195.213,247.939ZM196.013,245.048C190.66,243.567 187.48,239.174 185.927,233.563C184.283,227.621 184.452,220.328 185.954,213.356C187.75,205.018 191.447,197.119 196.374,192.581C199.412,189.783 202.917,188.296 206.725,189.033C222.059,191.998 225.263,207.718 221.814,221.729C220.056,228.871 216.556,235.617 211.91,240.135C207.478,244.445 201.991,246.702 196.013,245.048L196.013,245.048Z"/>
    </g>
    <g id="right-eye-black" serifId="right eye black">
        <path d="M316.241,246.887C313.832,268.869 327.869,281.87 339.445,279.194C368.849,272.397 363.99,215.797 340.464,216.471C332.713,216.693 318.835,223.221 316.241,246.887Z"/>
        <path d="M314.75,246.724C313.236,260.536 318.01,270.934 324.62,276.46C329.218,280.304 334.722,281.825 339.782,280.655C349.117,278.498 355.227,271.637 358.481,263.053C361.656,254.677 362.091,244.659 360.203,235.982C357.593,223.991 350.492,214.683 340.422,214.972C332.282,215.205 317.474,221.872 314.75,246.723L314.75,246.724ZM317.732,247.05C320.196,224.569 333.144,218.181 340.507,217.971C349.259,217.72 355.003,226.2 357.271,236.62C359.041,244.751 358.651,254.14 355.676,261.989C352.78,269.63 347.415,275.812 339.107,277.732C334.906,278.704 330.362,277.349 326.544,274.158C320.531,269.131 316.355,259.617 317.732,247.05L317.732,247.05Z"/>
    </g>
    <g id="Layer2">
        <ellipse cx="211.568" cy="222.522" rx="3.301" ry="3.652" style="fill:white;"/>
        <g transform="matrix(1.38323,0,0,1,-134.737,0)">
            <ellipse cx="348.773" cy="251.156" rx="2.809" ry="4.314" style="fill:url(#_Linear1);"/>
        </g>
    </g>
    <g id="tie">
        <path d="M205.824,445.394C202.367,444.302 307.176,472.668 312.953,472.668C313.629,472.668 308.792,455.336 307.633,450.509C306.504,445.809 222.347,423.872 218.297,423.872C218.297,423.872 218.304,423.859 218.052,424.489C217.054,426.982 204.943,445.878 204.943,446.34" style="fill:rgb(40,95,207);"/>
        <path d="M218.3,422.372L218.297,422.372L218.297,422.372C218.009,422.372 217.547,422.455 217.173,422.878C217.094,422.967 216.99,423.134 216.972,423.168L217.184,423.521L216.893,423.344C216.893,423.344 216.831,423.502 216.659,423.932C215.769,426.156 205.937,441.543 203.983,444.934C203.537,445.708 203.443,446.246 203.443,446.34C203.443,447.168 204.115,447.84 204.943,447.84C205.518,447.84 206.018,447.515 206.27,447.039C206.597,447.123 207.004,447.228 207.448,447.344C222.01,451.156 307.735,474.168 312.953,474.168C313.446,474.168 313.896,473.982 314.231,473.486C314.347,473.313 314.576,472.823 314.491,472.02C314.187,469.144 310.143,454.541 309.091,450.159C308.972,449.663 308.476,448.915 307.368,448.217C305.845,447.255 302.84,445.977 298.806,444.523C276.531,436.492 222.116,422.515 218.35,422.373L218.35,422.373L218.3,422.372ZM219.239,425.49C217.8,428.367 211.001,439.166 207.836,444.345L208.208,444.442C221.827,448.007 298.121,468.567 311.269,470.943C310.35,466.448 307.222,455.15 306.234,451.105C306.019,450.952 305.342,450.484 304.667,450.145C303.082,449.35 300.722,448.402 297.788,447.345C276.858,439.799 227.22,426.852 219.239,425.49ZM218.297,425.372C218.326,425.454 218.383,425.446 218.457,425.38L218.382,425.374L218.297,425.372Z"/>
    </g>
    <g id="tie-bottom" serifId="tie bottom">
        <path d="M259.592,460.033C259.592,459.945 245.001,456.196 245.187,456.171L245.336,456.369C243.552,456.251 176.335,581.929 178.212,585.684C184.707,598.674 197.539,646.346 198.886,646.097C205.273,644.917 229.305,608.055 234.567,594.241C237.946,585.37 259.053,466.178 259.053,459.985" style="fill:rgb(40,95,207);"/>
        <path d="M243.705,455.933C242.594,457.478 239.885,462.068 236.181,468.678C221.718,494.491 191.46,551.567 180.704,574.904C178.485,579.719 177.091,583.15 176.772,584.644C176.591,585.496 176.729,586.071 176.87,586.354C182.705,598.024 193.652,637.738 196.766,645.382C197.174,646.386 197.57,646.972 197.782,647.165C198.282,647.619 198.784,647.641 199.158,647.572C199.9,647.435 200.85,646.971 201.927,646.143C203.939,644.596 206.618,641.674 209.591,637.918C219.266,625.695 232.252,604.533 235.969,594.775C239.226,586.225 258.886,475.599 260.454,461.26C260.84,460.989 261.092,460.54 261.092,460.033C261.092,459.787 261.078,459.166 260.349,458.737C260.305,458.711 260.077,458.6 259.673,458.484C257.738,457.927 247.958,455.403 245.951,454.838C245.83,454.804 245.702,454.766 245.702,454.766C245.702,454.766 246.165,455.035 246.204,455.071C246.316,455.174 246.403,455.279 246.47,455.384C245.182,453.761 245.165,456.716 245.182,457.491L245.187,457.671L244.188,457.17L245.435,454.872C245.2,454.856 244.611,454.871 244.038,455.505C243.951,455.601 243.841,455.743 243.707,455.93C243.81,455.291 244.32,454.774 244.987,454.684C243.978,454.82 243.765,455.536 243.705,455.933ZM245.988,457.958C245.088,459.403 242.11,464.234 238.798,470.145C224.364,495.906 194.163,552.869 183.429,576.16C181.998,579.263 180.917,581.76 180.273,583.494C179.997,584.236 179.788,585.017 179.708,585.329C184.952,596.088 194.109,628.267 198.264,640.68C198.725,642.056 199.226,643.353 199.557,644.178C199.952,643.913 200.395,643.545 200.893,643.107C202.66,641.549 204.841,639.085 207.239,636.056C216.739,624.053 229.515,603.289 233.165,593.707C236.417,585.171 256.148,474.076 257.481,460.994C254.537,460.202 248.551,458.648 245.988,457.958ZM244.2,457.3C244.382,457.459 244.603,457.575 244.845,457.631C244.488,457.5 244.278,457.359 244.2,457.3Z"/>
    </g>
    <g id="Lines">
        <path d="M508.964,572.398C508.509,571.757 507.626,571.574 506.95,571.995C506.408,572.332 505.521,573.783 507.247,574.865C507.941,575.299 509.67,576.142 511.358,577.464C512.85,578.633 514.35,580.191 514.831,582.25C515.5,585.117 514.131,588.743 508.829,593.49C502.471,599.182 493.066,602.189 483.925,603.802C469.921,606.273 456.478,605.429 454.88,605.429C454.052,605.429 453.38,606.102 453.38,606.929C453.38,607.757 454.052,608.429 454.88,608.429C456.507,608.429 470.19,609.272 484.446,606.756C494.145,605.045 504.084,601.764 510.83,595.725C517.388,589.854 518.58,585.114 517.752,581.567C517.232,579.343 515.893,577.509 514.336,576.063C512.317,574.188 509.95,572.99 508.964,572.398ZM509.092,573.923C508.984,574.146 508.82,574.345 508.605,574.495C508.845,574.33 508.999,574.135 509.092,573.923Z"/>
        <path d="M508.643,597.549C509.162,597.563 511.207,597.633 513.388,597.877C521.325,598.763 536.339,601.42 545.505,606.993C551.016,610.345 554.382,614.765 551.762,620.717C545.065,635.934 531.915,642.636 518.582,645.209C505.019,647.827 491.241,646.195 483.561,644.707C480.566,644.127 478.217,643.429 477.843,643.316C477.607,643.161 477.325,643.071 477.022,643.071C476.194,643.071 475.522,643.743 475.522,644.571C475.522,644.862 475.578,645.341 476.096,645.761C476.238,645.876 476.982,646.234 478.294,646.589C483.214,647.921 498.172,650.865 513.879,648.976C529.818,647.059 546.475,640.177 554.508,621.926C558.19,613.56 553.003,607.324 544.511,603.015C532.778,597.06 514.79,594.765 509.617,594.552C508.533,594.507 507.851,594.609 507.651,594.686C507.186,594.863 506.964,595.158 506.841,595.375C506.595,595.81 506.56,596.27 506.781,596.756C507.106,597.468 507.919,597.804 508.643,597.549ZM509.542,595.585C509.665,595.898 509.676,596.23 509.591,596.534C509.686,596.23 509.675,595.914 509.542,595.585Z"/>
        <path d="M542.527,638.043C542.836,638.032 543.537,638.016 544.185,638.082C547.964,638.467 555.121,640.327 560.886,644.088C564.572,646.493 567.706,649.675 568.849,653.826C572.349,666.54 565.636,674.96 554.333,680.623C536.489,689.561 507.475,691.765 486.402,692.322C472.633,692.686 462.195,692.352 460.246,692.639C458.841,692.846 458.638,693.923 458.638,694.244C458.638,695.071 459.31,695.744 460.138,695.744C460.373,695.744 460.596,695.689 460.794,695.593C462.974,695.336 473.143,695.674 486.481,695.321C507.952,694.754 537.496,692.412 555.676,683.305C568.389,676.937 575.677,667.329 571.741,653.029C570.406,648.178 566.833,644.386 562.525,641.575C556.3,637.514 548.57,635.513 544.489,635.097C542.729,634.918 541.503,635.114 541.039,635.369C540.459,635.688 540.215,636.148 540.137,636.595C539.994,637.41 540.539,638.188 541.355,638.331C541.785,638.407 542.206,638.29 542.527,638.043ZM461.465,694.943C461.591,694.715 461.638,694.477 461.638,694.244C461.638,694.496 461.576,694.734 461.465,694.943Z"/>
        <path d="M422.287,728.129C422.724,728.164 426.029,728.434 430.101,728.858C444.163,730.323 473.259,733.389 494.092,732.812C503.269,732.557 510.877,731.558 515.05,729.502C524.398,724.895 534.762,717.869 540.41,710.464C543.424,706.513 545.104,702.427 544.822,698.525C544.535,694.56 542.269,690.695 537.068,687.32C536.374,686.869 535.444,687.067 534.993,687.761C534.543,688.456 534.741,689.385 535.435,689.836C539.619,692.552 541.599,695.552 541.83,698.742C542.065,701.994 540.536,705.351 538.024,708.645C532.621,715.73 522.668,722.403 513.723,726.811C509.297,728.993 500.75,729.78 490.631,729.874C466.403,730.1 433.345,726.083 424.449,725.273C422.937,725.135 422.01,725.12 421.786,725.164C421.344,725.25 421.102,725.459 420.97,725.591C420.385,726.177 420.385,727.127 420.97,727.712C421.328,728.071 421.823,728.21 422.287,728.129Z"/>
        <g transform="matrix(1,0,0,1,-1.99782,2.04664)">
            <path d="M276.021,546.14C276.331,546.096 276.63,545.954 276.868,545.716C277.453,545.131 277.453,544.18 276.868,543.595C276.482,543.209 275.662,542.786 274.55,543.475C273.564,544.086 271.326,546.528 268.781,550.703C256.874,570.234 236.072,629.159 302.328,704.037C346.189,753.606 421.53,751.593 464.573,742.872C477.533,740.246 487.57,737.013 492.959,734.421C495.628,733.138 497.239,731.888 497.777,730.983C498.2,730.271 497.966,729.35 497.254,728.927C496.543,728.504 495.621,728.738 495.198,729.45C495.088,729.636 494.862,729.821 494.569,730.044C493.897,730.554 492.916,731.114 491.659,731.718C486.405,734.244 476.613,737.371 463.978,739.931C421.704,748.497 347.651,750.73 304.575,702.049C239.811,628.857 259.704,571.356 271.342,552.265C273.245,549.143 275.503,546.688 276.021,546.14ZM274.872,545.828L274.889,545.841L274.868,545.825L274.872,545.828ZM274.829,545.793L274.848,545.808L274.82,545.784L274.829,545.793Z"/>
        </g>
        <path d="M286.59,99.226C282.661,99.542 273.679,100.316 266.838,103.286C257.419,107.376 250.476,115.398 250.476,115.398C250.055,115.885 249.991,116.587 250.319,117.142C250.647,117.697 251.293,117.98 251.923,117.846C251.923,117.846 260.57,116 267.003,116.095C268.301,116.114 269.503,116.211 270.509,116.433C271.265,116.599 271.898,116.806 272.293,117.171C272.287,117.231 272.269,117.398 272.238,117.5C272.127,117.869 271.917,118.263 271.662,118.672C270.393,120.712 268.152,122.971 267.574,124.126C266.21,126.854 266.453,129.365 267.087,131.784C267.6,133.743 268.425,135.617 268.425,137.519C268.425,138.347 269.097,139.019 269.925,139.019C270.753,139.019 271.425,138.347 271.425,137.519C271.425,135.758 270.867,134.005 270.329,132.215C269.69,130.092 269.044,127.895 270.257,125.468C270.556,124.869 271.383,123.957 272.227,122.928C273.245,121.685 274.293,120.31 274.834,119.1C275.564,117.468 275.438,116.034 274.399,115.033C273.1,113.782 270.337,113.144 267.047,113.095C263.463,113.042 259.221,113.563 256.043,114.06C258.783,111.565 263.034,108.208 268.033,106.038C275.72,102.7 286.241,102.313 288.453,102.077C289.281,101.988 289.692,101.654 289.778,101.568C290.05,101.296 290.255,100.921 290.274,100.404C290.286,100.087 290.193,99.587 289.909,98.99C289.056,97.198 286.089,93.434 285.451,92.544C285.273,92.197 284.961,91.92 284.559,91.796C283.807,91.564 283.33,91.88 283.033,92.19C282.965,92.26 282.23,93.194 282.998,94.272C283.462,94.922 285.347,97.302 286.527,99.125L286.59,99.226ZM285.087,94.373C284.71,94.692 284.183,94.819 283.676,94.663C284.34,94.867 284.788,94.642 285.087,94.373ZM285.613,93.348C285.595,93.663 285.482,93.902 285.35,94.085C285.436,93.961 285.504,93.822 285.551,93.671C285.584,93.564 285.604,93.456 285.613,93.348Z"/>
        <path d="M247.191,456.207C247.205,456.133 247.238,455.955 247.272,455.78C247.747,453.376 249.607,444.223 249.315,437.541C249.173,434.283 248.444,431.581 247.078,430.181C246.5,429.588 245.549,429.577 244.957,430.155C244.364,430.733 244.352,431.683 244.93,432.276C245.92,433.29 246.215,435.312 246.318,437.672C246.599,444.094 244.786,452.888 244.329,455.199C244.231,455.694 244.196,455.994 244.195,456.053C244.186,456.989 244.816,457.309 245.006,457.407C245.741,457.789 246.647,457.501 247.028,456.767C247.121,456.587 247.175,456.397 247.191,456.207Z"/>
        <path d="M260.541,459.269L260.543,459.258C261.229,456.686 265.717,447.372 269.632,442.324C270.408,441.324 271.152,440.498 271.84,439.962C272.049,439.799 272.247,439.666 272.438,439.577C272.508,439.545 272.623,439.512 272.653,439.504C273.444,439.674 274.232,439.182 274.425,438.391C274.62,437.587 274.126,436.775 273.321,436.58C272.589,436.402 271.738,436.522 270.829,437.034C269.937,437.537 268.917,438.474 267.867,439.732C264.25,444.066 259.985,452.403 258.315,456.571C257.836,457.767 257.567,458.673 257.517,459.123C257.37,460.436 258.224,460.902 258.716,461.021C259.521,461.217 260.332,460.722 260.528,459.918C260.581,459.698 260.583,459.477 260.541,459.269ZM259.94,458.342C259.786,458.228 259.613,458.152 259.425,458.106C259.616,458.152 259.789,458.234 259.94,458.342Z"/>
    </g>
    <g id="monocle-line" serifId="monocle line">
        <path d="M382.549,295.184C382.837,312.681 385.759,321.75 383.288,339.042C382.092,347.417 375.721,363.699 374.074,371.933C372.686,378.875 371.395,385.489 371.547,391.476C371.707,397.755 373.427,403.365 378.085,408.023C378.67,408.608 379.621,408.608 380.206,408.023C380.792,407.437 380.792,406.487 380.206,405.901C376.131,401.826 374.686,396.893 374.546,391.4C374.399,385.615 375.674,379.228 377.016,372.521C378.67,364.248 385.056,347.882 386.258,339.467C388.755,321.988 385.839,312.82 385.549,295.135C385.535,294.307 384.852,293.646 384.024,293.66C383.197,293.673 382.536,294.356 382.549,295.184Z" style="fill:rgb(121,73,48);"/>
    </g>
    <g transform="matrix(1.09019,0,0,1,-36.8312,-1.8411)">
        <g id="monocle">
            <ellipse cx="350.003" cy="242.68" rx="61.129" ry="66.814" style="fill:rgb(179,215,225);fill-opacity:0.41;stroke:black;stroke-width:2.87px;"/>
        </g>
    </g>
    <g id="mouth-closed" serifId="mouth closed">
        <path d="M115.922,233.654C134.731,222.368 158.276,285.351 194.807,257.942C204.273,250.84 232.003,236.089 243.977,238.085C264.614,241.524 273.871,263.174 279.609,280.898C294.959,328.32 356.774,293.758 361.584,342.397C364.487,371.742 343.091,371.629 326.834,377.132C304.618,384.652 221.803,377.09 195.752,371.931C116.2,356.176 106.392,239.372 115.922,233.654Z" style="fill:rgb(254,176,6);"/>
        <path d="M115.15,232.368C114.076,233.012 113.031,234.695 112.395,237.399C111.186,242.543 111.022,251.829 112.439,263.25C117.124,301.023 139.059,362.233 195.46,373.402C213.751,377.024 259.938,381.831 293.648,381.8C308.261,381.786 320.553,380.841 327.315,378.553C332.183,376.905 337.513,375.762 342.511,374.178C348.644,372.235 354.274,369.613 358.132,364.829C361.997,360.036 364.145,353.05 363.077,342.249C362.324,334.635 360.207,328.984 357.141,324.696C350.067,314.799 337.811,312.149 324.825,309.717C307.355,306.444 288.496,303.482 281.036,280.436C278.124,271.441 274.306,261.456 268.611,253.277C262.77,244.889 254.965,238.396 244.224,236.605C240.455,235.977 235.19,236.879 229.409,238.723C216.389,242.874 200.617,251.708 193.906,256.743C172.737,272.626 156.165,256.736 142.304,244.113C136.411,238.746 130.967,233.911 125.908,231.875C122.157,230.365 118.585,230.307 115.15,232.368ZM116.694,234.94C119.983,232.967 123.428,233.715 127.106,235.785C131.23,238.105 135.595,242.06 140.284,246.331C155.126,259.848 173.039,276.149 195.707,259.142C201.318,254.933 213.427,248.008 224.77,243.564C232.123,240.682 239.13,238.798 243.731,239.564C253.626,241.214 260.768,247.264 266.149,254.992C271.676,262.929 275.356,272.631 278.181,281.36C286.072,305.736 305.795,309.204 324.273,312.665C336.45,314.946 348.067,317.16 354.701,326.44C357.51,330.37 359.402,335.567 360.092,342.545C361.055,352.286 359.282,358.623 355.797,362.945C352.305,367.276 347.156,369.559 341.605,371.319C336.588,372.908 331.239,374.057 326.353,375.711C319.785,377.934 307.839,378.787 293.645,378.8C260.137,378.831 214.224,374.06 196.043,370.459C141.071,359.573 119.983,299.697 115.416,262.881C114.057,251.926 114.156,243.02 115.316,238.086C115.538,237.141 115.795,236.357 116.097,235.755C116.287,235.378 116.458,235.081 116.694,234.94Z"/>
    </g>
    <g id="Layer3">
    </g>
    <defs>
        <linearGradient id="_Linear1" x1="0" y1="0" x2="1" y2="0" gradientUnits="userSpaceOnUse" gradientTransform="matrix(3.6271,7.85268,-5.67706,5.01711,347.937,249.158)"><stop offset="0" style="stop-color:white;stop-opacity:1"/><stop offset="1" style="stop-color:rgb(179,179,179);stop-opacity:1"/></linearGradient>
    </defs>
</svg>
