<?xml version="1.0" encoding="iso-8859-1"?>
<!-- Generator: Adobe Illustrator 19.0.0, SVG Export Plug-In . SVG Version: 6.00 Build 0)  -->
<svg version="1.1" id="Layer_1" xmlns="http://www.w3.org/2000/svg" xmlnsXlink="http://www.w3.org/1999/xlink" x="0px" y="0px"
	 viewBox="0 0 491.504 491.504" style="enable-background:new 0 0 491.504 491.504;" xmlSpace="preserve">
<rect x="63.915" y="23.69" style="fill:#DC8744;" width="363.674" height="467.814"/>
<rect x="89.341" y="40.699" style="fill:#D5D6DB;" width="312.832" height="428.288"/>
<rect x="89.341" y="23.69" style="fill:#EBF0F3;" width="312.832" height="428.288"/>
<g>
	<rect x="89.346" y="78.274" style="fill:#E56353;" width="312.832" height="4.255"/>
	<rect x="89.346" y="73.339" style="fill:#E56353;" width="312.832" height="1.695"/>
</g>
<g>
	<rect x="89.346" y="111.437" style="fill:#D5D6DB;" width="312.832" height="1.695"/>
	<rect x="89.346" y="142.044" style="fill:#D5D6DB;" width="312.832" height="1.695"/>
	<rect x="89.346" y="172.651" style="fill:#D5D6DB;" width="312.832" height="1.695"/>
	<rect x="89.346" y="203.259" style="fill:#D5D6DB;" width="312.832" height="1.695"/>
	<rect x="89.346" y="233.861" style="fill:#D5D6DB;" width="312.832" height="1.695"/>
	<rect x="89.346" y="264.468" style="fill:#D5D6DB;" width="312.832" height="1.695"/>
	<rect x="89.346" y="295.065" style="fill:#D5D6DB;" width="312.832" height="1.695"/>
	<rect x="89.346" y="325.683" style="fill:#D5D6DB;" width="312.832" height="1.695"/>
	<rect x="89.346" y="356.301" style="fill:#D5D6DB;" width="312.832" height="1.695"/>
	<rect x="89.346" y="386.918" style="fill:#D5D6DB;" width="312.832" height="1.695"/>
	<rect x="89.346" y="417.485" style="fill:#D5D6DB;" width="312.832" height="1.695"/>
</g>
<circle style="fill:#E1E6E9;" cx="108.951" cy="44.861" r="5.12"/>
<path style="fill:#64798A;" d="M110.788,47.382c-7.044,0-12.568-10.409-12.568-23.691C98.22,10.409,103.744,0,110.788,0
	s12.569,10.409,12.569,23.69h-4.253c0-11.454-4.386-19.437-8.316-19.437c-3.928,0-8.314,7.983-8.314,19.437
	c0,11.455,4.386,19.438,8.314,19.438V47.382z"/>
<circle style="fill:#E1E6E9;" cx="138.949" cy="44.861" r="5.12"/>
<path style="fill:#64798A;" d="M140.781,47.382c-7.045,0-12.568-10.409-12.568-23.691c0-13.282,5.523-23.69,12.568-23.69
	c7.044,0,12.568,10.409,12.568,23.69h-4.253c0-11.454-4.386-19.437-8.314-19.437c-3.93,0-8.316,7.983-8.316,19.437
	c0,11.455,4.386,19.438,8.316,19.438V47.382z"/>
<circle style="fill:#E1E6E9;" cx="168.932" cy="44.861" r="5.12"/>
<path style="fill:#64798A;" d="M170.772,47.382c-7.044,0-12.568-10.409-12.568-23.691c0-13.282,5.524-23.69,12.568-23.69
	c7.043,0,12.568,10.409,12.568,23.69h-4.253c0-11.454-4.385-19.437-8.314-19.437c-3.93,0-8.315,7.983-8.315,19.437
	c0,11.455,4.385,19.438,8.315,19.438V47.382z"/>
<circle style="fill:#E1E6E9;" cx="198.925" cy="44.861" r="5.12"/>
<path style="fill:#64798A;" d="M200.764,47.382c-7.044,0-12.568-10.409-12.568-23.691c0-13.282,5.523-23.69,12.568-23.69
	c7.045,0,12.569,10.409,12.569,23.69h-4.253c0-11.454-4.386-19.437-8.316-19.437c-3.928,0-8.314,7.983-8.314,19.437
	c0,11.455,4.386,19.438,8.314,19.438V47.382z"/>
<circle style="fill:#E1E6E9;" cx="228.918" cy="44.861" r="5.12"/>
<path style="fill:#64798A;" d="M230.756,47.382c-7.044,0-12.568-10.409-12.568-23.691c0-13.282,5.524-23.69,12.568-23.69
	c7.044,0,12.568,10.409,12.568,23.69h-4.252c0-11.454-4.387-19.437-8.315-19.437c-3.929,0-8.316,7.983-8.316,19.437
	c0,11.455,4.387,19.438,8.316,19.438V47.382z"/>
<circle style="fill:#E1E6E9;" cx="258.911" cy="44.861" r="5.12"/>
<path style="fill:#64798A;" d="M260.748,47.382c-7.044,0-12.568-10.409-12.568-23.691c0-13.282,5.524-23.69,12.568-23.69
	c7.043,0,12.568,10.409,12.568,23.69h-4.253c0-11.454-4.385-19.437-8.314-19.437c-3.929,0-8.315,7.983-8.315,19.437
	c0,11.455,4.386,19.438,8.315,19.438V47.382z"/>
<circle style="fill:#E1E6E9;" cx="288.914" cy="44.861" r="5.12"/>
<path style="fill:#64798A;" d="M290.739,47.382c-7.043,0-12.568-10.409-12.568-23.691c0-13.282,5.524-23.69,12.568-23.69
	c7.045,0,12.569,10.409,12.569,23.69h-4.253c0-11.454-4.386-19.437-8.316-19.437c-3.928,0-8.314,7.983-8.314,19.437
	c0,11.455,4.386,19.438,8.314,19.438V47.382z"/>
<circle style="fill:#E1E6E9;" cx="318.917" cy="44.861" r="5.12"/>
<path style="fill:#64798A;" d="M320.732,47.382c-7.044,0-12.568-10.409-12.568-23.691c0-13.282,5.523-23.69,12.568-23.69
	c7.044,0,12.567,10.409,12.567,23.69h-4.252c0-11.454-4.387-19.437-8.315-19.437c-3.929,0-8.314,7.983-8.314,19.437
	c0,11.455,4.385,19.438,8.314,19.438V47.382z"/>
<circle style="fill:#E1E6E9;" cx="348.869" cy="44.861" r="5.12"/>
<path style="fill:#64798A;" d="M350.724,47.382c-7.044,0-12.568-10.409-12.568-23.691c0-13.282,5.524-23.69,12.568-23.69
	c7.044,0,12.568,10.409,12.568,23.69h-4.254c0-11.454-4.385-19.437-8.314-19.437s-8.315,7.983-8.315,19.437
	c0,11.455,4.386,19.438,8.315,19.438V47.382z"/>
<circle style="fill:#E1E6E9;" cx="378.872" cy="44.861" r="5.12"/>
<path style="fill:#64798A;" d="M380.717,47.382c-7.045,0-12.569-10.409-12.569-23.691c0-13.282,5.524-23.69,12.569-23.69
	c7.043,0,12.568,10.409,12.568,23.69h-4.253c0-11.454-4.386-19.437-8.314-19.437c-3.93,0-8.316,7.983-8.316,19.437
	c0,11.455,4.386,19.438,8.316,19.438V47.382z"/>
<g>
</g>
<g>
</g>
<g>
</g>
<g>
</g>
<g>
</g>
<g>
</g>
<g>
</g>
<g>
</g>
<g>
</g>
<g>
</g>
<g>
</g>
<g>
</g>
<g>
</g>
<g>
</g>
<g>
</g>
</svg>
